<?xml version="1.0" encoding="UTF-8"?>
<svg width="17px" height="17px" viewBox="0 0 17 17" version="1.1" xmlns="http://www.w3.org/2000/svg" xmlns:xlink="http://www.w3.org/1999/xlink">
    <title>add-photo</title>
    <g id="Symbols" stroke="none" stroke-width="1" fill="none" fill-rule="evenodd">
        <g id="add-photo" transform="translate(-9.000000, -9.000000)" fill="#FFFFFF">
            <path d="M17.8421053,9 C18.39439,9 18.8421053,9.44771525 18.8421053,10 L18.842,16.157 L25,16.1578947 C25.5522847,16.1578947 26,16.60561 26,17.1578947 L26,17.8421053 C26,18.39439 25.5522847,18.8421053 25,18.8421053 L18.842,18.842 L18.8421053,25 C18.8421053,25.5522847 18.39439,26 17.8421053,26 L17.1578947,26 C16.60561,26 16.1578947,25.5522847 16.1578947,25 L16.157,18.842 L10,18.8421053 C9.44771525,18.8421053 9,18.39439 9,17.8421053 L9,17.1578947 C9,16.60561 9.44771525,16.1578947 10,16.1578947 L16.157,16.157 L16.1578947,10 C16.1578947,9.44771525 16.60561,9 17.1578947,9 L17.8421053,9 Z"></path>
        </g>
    </g>
</svg>