<?xml version="1.0" encoding="UTF-8"?>
<svg width="28px" height="23px" viewBox="0 0 28 23" version="1.1" xmlns="http://www.w3.org/2000/svg" xmlns:xlink="http://www.w3.org/1999/xlink">
    <title>add-friend</title>
    <defs>
        <linearGradient x1="99.9327064%" y1="72.2022804%" x2="0.447484675%" y2="27.9767045%" id="linearGradient-1">
            <stop stop-color="#E973C4" offset="0%"></stop>
            <stop stop-color="#BA53E0" offset="100%"></stop>
        </linearGradient>
        <linearGradient x1="99.9327064%" y1="99.9551309%" x2="0.447484675%" y2="0.447585088%" id="linearGradient-2">
            <stop stop-color="#E973C4" offset="0%"></stop>
            <stop stop-color="#BA53E0" offset="100%"></stop>
        </linearGradient>
        <linearGradient x1="53.1207942%" y1="99.9551309%" x2="46.9029678%" y2="0.447585088%" id="linearGradient-3">
            <stop stop-color="#E973C4" offset="0%"></stop>
            <stop stop-color="#BA53E0" offset="100%"></stop>
        </linearGradient>
        <linearGradient x1="99.9327064%" y1="53.1221957%" x2="0.447484675%" y2="46.9029741%" id="linearGradient-4">
            <stop stop-color="#E973C4" offset="0%"></stop>
            <stop stop-color="#BA53E0" offset="100%"></stop>
        </linearGradient>
    </defs>
    <g id="add-friend" stroke="none" stroke-width="1" fill="none" fill-rule="evenodd">
        <path d="M15.5342466,13 C16.1016624,13 16.5616438,13.4974614 16.5616438,14.1111111 C16.5616438,14.6809287 16.1650272,15.1505635 15.6540628,15.214747 L15.5342466,15.2222222 L11.2191781,15.2222222 C8.20155748,15.2222222 5.69036586,17.5671771 5.1586077,20.6640598 L5.14109589,20.7777778 L16.9726027,20.7777778 C17.4994889,20.7777778 17.9337402,21.2067113 17.9930879,21.7593099 L18,21.8888889 C18,22.4587065 17.6033834,22.9283413 17.092419,22.9925247 L16.9726027,23 L4.02739726,23 C3.45998142,23 3,22.5025386 3,21.8888889 C3,17.0723175 6.54229908,13.1505079 10.9631719,13.0042298 L11.2191781,13 L15.5342466,13 Z" id="Path" fill="url(#linearGradient-1)" fill-rule="nonzero"></path>
        <path d="M14,-8.8817842e-16 C10.6862915,-8.8817842e-16 8,2.6862915 8,6 C8,9.3137085 10.6862915,12 14,12 C17.3137085,12 20,9.3137085 20,6 C20,2.6862915 17.3137085,-8.8817842e-16 14,-8.8817842e-16 Z M14,2.03389831 C16.1904175,2.03389831 17.9661017,3.80958252 17.9661017,6 C17.9661017,8.19041748 16.1904175,9.96610169 14,9.96610169 C11.8095825,9.96610169 10.0338983,8.19041748 10.0338983,6 C10.0338983,3.80958252 11.8095825,2.03389831 14,2.03389831 Z" id="Oval" fill="url(#linearGradient-2)" fill-rule="nonzero"></path>
        <path d="M21,14 C21.5128358,14 21.9355072,14.4063581 21.9932723,14.9298725 L22,15.0526316 L22,20.9473684 C22,21.5287208 21.5522847,22 21,22 C20.4871642,22 20.0644928,21.5936419 20.0067277,21.0701275 L20,20.9473684 L20,15.0526316 C20,14.4712792 20.4477153,14 21,14 Z" id="Path" fill="url(#linearGradient-3)" fill-rule="nonzero"></path>
        <path d="M23.9473684,17 C24.5287208,17 25,17.4477153 25,18 C25,18.5128358 24.5936419,18.9355072 24.0701275,18.9932723 L23.9473684,19 L18.0526316,19 C17.4712792,19 17,18.5522847 17,18 C17,17.4871642 17.4063581,17.0644928 17.9298725,17.0067277 L18.0526316,17 L23.9473684,17 Z" id="Path" fill="url(#linearGradient-4)" fill-rule="nonzero"></path>
    </g>
</svg>