<?xml version="1.0" encoding="UTF-8"?>
<svg width="23px" height="23px" viewBox="0 0 23 23" version="1.1" xmlns="http://www.w3.org/2000/svg" xmlns:xlink="http://www.w3.org/1999/xlink">
    <title>btn_friends</title>
    <g id="Page-1" stroke="none" stroke-width="1" fill="none" fill-rule="evenodd">
        <g id="My-profile-settings" transform="translate(-373.000000, -372.000000)" stroke="#3F4B5E" stroke-width="2">
            <g id="Card" transform="translate(0.000000, 264.000000)">
                <g id="Path" transform="translate(374.000000, 110.000000)">
                    <line x1="3" y1="17" x2="5.796" y2="14.204" stroke-linecap="square"></line>
                    <polyline stroke-linecap="square" points="0 17 3 17 3 20"></polyline>
                    <path d="M14.091,1 C12.4455762,1.01308596 10.9134753,1.84036801 10,3.209 C8.81166387,1.39320408 6.57052864,0.575320381 4.49196669,1.19888897 C2.41340474,1.82245755 0.992576442,3.73893031 0.999971048,5.909 C0.999971048,10.818 10,18.182 10,18.182 C10,18.182 19,10.818 19,5.909 C18.9917639,3.20125302 16.798747,1.00823613 14.091,1 Z"></path>
                    <line x1="14" y1="6" x2="20" y2="0" stroke-linecap="square"></line>
                </g>
            </g>
        </g>
    </g>
</svg>