<?xml version="1.0" encoding="UTF-8"?>
<svg width="22px" height="22px" viewBox="0 0 22 22" version="1.1" xmlns="http://www.w3.org/2000/svg" xmlns:xlink="http://www.w3.org/1999/xlink">
    <title>icon/show-my-position</title>
    <g id="Page-1" stroke="none" stroke-width="1" fill="none" fill-rule="evenodd">
        <g id="Map-view" transform="translate(-363.000000, -119.000000)" stroke="#3F4B5E" stroke-width="2">
            <g id="Recenter-map" transform="translate(354.000000, 110.000000)">
                <g id="Group" transform="translate(10.000000, 10.000000)">
                    <circle id="Oval" stroke-linecap="square" cx="10" cy="10" r="4"></circle>
                    <path d="M0,6 L0,1 C-6.76353751e-17,0.44771525 0.44771525,1.01453063e-16 1,0 L6,0 L6,0" id="Path" stroke-linecap="round"></path>
                    <path d="M14,0 L19,0 C19.5522847,-1.01453063e-16 20,0.44771525 20,1 L20,6 L20,6" id="Path" stroke-linecap="round"></path>
                    <path d="M20,14 L20,19 C20,19.5522847 19.5522847,20 19,20 L14,20 L14,20" id="Path" stroke-linecap="round"></path>
                    <path d="M6,20 L1,20 C0.44771525,20 6.76353751e-17,19.5522847 0,19 L0,14 L0,14" id="Path" stroke-linecap="round"></path>
                </g>
            </g>
        </g>
    </g>
</svg>