<?xml version="1.0" encoding="UTF-8"?>
<svg width="20px" height="20px" viewBox="0 0 20 20" version="1.1" xmlns="http://www.w3.org/2000/svg" xmlns:xlink="http://www.w3.org/1999/xlink">
    <title>btn_change-group-name</title>
    <g id="Page-1" stroke="none" stroke-width="1" fill="none" fill-rule="evenodd">
        <g id="Chat-view----Conversation-details" transform="translate(-374.000000, -392.000000)" fill="#3F4B5E" fill-rule="nonzero">
            <g id="Group" transform="translate(374.000000, 392.000000)">
                <polygon id="Path" points="10.4235352 7.03908122 12.9609783 9.57654583 11.6451999 10.8923353 9.10775679 8.35487073"></polygon>
                <path d="M10.7805973,3.21403622 L5.36743715,3.21403622 L5.36743715,20.6377928 L10.7805973,20.6377928 L10.7805973,3.21403622 Z M8.91907037,5.07433714 L8.91907037,18.7763923 L7.22761076,18.7763923 L7.22761076,5.07433714 L8.91907037,5.07433714 Z" id="Rectangle" transform="translate(8.074017, 11.925914) rotate(45.000000) translate(-8.074017, -11.925914) "></path>
                <polygon id="Path" points="13.2334849 0 13.2334849 2.70662891 11.3726933 2.70662891 11.3726933 0"></polygon>
                <polygon id="Path" points="17.1242311 1.56000371 18.4400095 2.87579322 16.4475796 4.86823997 15.1318012 3.55245045"></polygon>
                <polygon id="Path" points="20 6.76657229 20 8.62737967 17.293394 8.62737967 17.293394 6.76657229"></polygon>
                <polygon id="Path" points="15.1318012 11.8415015 16.4475796 10.525712 18.4400095 12.5181587 17.1242311 13.8339482"></polygon>
                <polygon id="Path" points="6.16616876 2.87579322 7.48194715 1.56000371 9.47437704 3.55245045 8.15859865 4.86823997"></polygon>
            </g>
        </g>
    </g>
</svg>