<?xml version="1.0" encoding="UTF-8"?>
<svg width="20px" height="18px" viewBox="0 0 20 18" version="1.1" xmlns="http://www.w3.org/2000/svg" xmlns:xlink="http://www.w3.org/1999/xlink">
    <title>btn_show-members</title>
    <g id="Page-1" stroke="none" stroke-width="1" fill="none" fill-rule="evenodd">
        <g id="Chat-view----Conversation-details---One-user" transform="translate(-373.000000, -469.000000)">
            <g id="Group-2" transform="translate(0.000000, 361.000000)">
                <g id="Group" transform="translate(373.000000, 107.000000)">
                    <line x1="12.7272727" y1="9.27272727" x2="15.7272727" y2="9.27272727" id="Path" stroke="#3F4B5E" stroke-width="2" stroke-linecap="square"></line>
                    <line x1="12.7272727" y1="12.9090909" x2="15.7272727" y2="12.9090909" id="Path" stroke="#3F4B5E" stroke-width="2" stroke-linecap="square"></line>
                    <path d="M3,14 C3,12.8953333 4.175125,12 5.625,12 L7.375,12 C8.824875,12 10,12.8953333 10,14 L3,14 Z" id="Path" fill="#3F4B5E" fill-rule="nonzero"></path>
                    <path d="M15.7272727,2 C15.7272727,2.98222222 14.995,3.77777778 14.0909091,3.77777778 C13.1868182,3.77777778 12.4545455,2.98222222 12.4545455,2 L7.54545455,2 C7.54545455,2.98222222 6.81318182,3.77777778 5.90909091,3.77777778 C5.005,3.77777778 4.27272727,2.98222222 4.27272727,2 L1,2 L1,18 L19,18 L19,2 L15.7272727,2 Z" id="Path" stroke="#3F4B5E" stroke-width="2" stroke-linecap="square"></path>
                    <circle id="Oval" fill="#3F4B5E" fill-rule="nonzero" cx="6.5" cy="9.5" r="1.5"></circle>
                </g>
            </g>
        </g>
    </g>
</svg>