<?xml version="1.0" encoding="UTF-8"?>
<svg width="20px" height="20px" viewBox="0 0 20 20" version="1.1" xmlns="http://www.w3.org/2000/svg" xmlns:xlink="http://www.w3.org/1999/xlink">
    <title>btn_edit-pen</title>
    <g id="Page-1" stroke="none" stroke-width="1" fill="none" fill-rule="evenodd">
        <g id="My-profile-settings" transform="translate(-373.000000, -509.000000)" fill="#3F4B5E" fill-rule="nonzero">
            <g id="Path" transform="translate(373.000000, 509.000000)">
                <path d="M4.90909091,0 C5.46137566,0 5.90909091,0.44771525 5.90909091,1 C5.90909091,1.51283584 5.52305072,1.93550716 5.02571203,1.99327227 L4.90909091,2 L3.45454545,2 C2.69847649,2 2.07714068,2.57686117 2.0066585,3.31446302 L2,3.45454545 L2,16.5454545 C2,17.3015235 2.57686117,17.9228593 3.31446302,17.9933415 L3.45454545,18 L16.5454545,18 C17.3015235,18 17.9228593,17.4231388 17.9933415,16.685537 L18,16.5454545 L18,15.0909091 C18,14.5386243 18.4477153,14.0909091 19,14.0909091 C19.5128358,14.0909091 19.9355072,14.4769493 19.9932723,14.974288 L20,15.0909091 L20,16.5454545 C20,18.3897509 18.554739,19.8964884 16.7349958,19.9948884 L16.5454545,20 L3.45454545,20 C1.61024911,20 0.103511557,18.554739 0.00511160477,16.7349958 L0,16.5454545 L0,3.45454545 C0,1.61024911 1.44526101,0.103511557 3.26500422,0.00511160477 L3.45454545,0 L4.90909091,0 Z"></path>
                <path d="M19,0 C19.5128358,0 19.9355072,0.38604019 19.9932723,0.883378875 L20,1 L20,9.18181818 C20,9.73410293 19.5522847,10.1818182 19,10.1818182 C18.4871642,10.1818182 18.0644928,9.79577799 18.0067277,9.29843931 L18,9.18181818 L18,2 L10.8181818,2 C10.305346,2 9.88267466,1.61395981 9.82490955,1.11662113 L9.81818182,1 C9.81818182,0.487164161 10.204222,0.0644928393 10.7015607,0.00672773133 L10.8181818,0 L19,0 Z"></path>
                <path d="M18.2928932,0.292893219 C18.6834175,-0.0976310729 19.3165825,-0.0976310729 19.7071068,0.292893219 C20.0675907,0.65337718 20.0953203,1.22060824 19.7902954,1.61289944 L19.7071068,1.70710678 L9.88892496,11.5252886 C9.49840067,11.9158129 8.86523569,11.9158129 8.4747114,11.5252886 C8.11422744,11.1648046 8.0864979,10.5975736 8.39152279,10.2052824 L8.4747114,10.111075 L18.2928932,0.292893219 Z"></path>
            </g>
        </g>
    </g>
</svg>