<?xml version="1.0" encoding="UTF-8"?>
<svg width="22px" height="19px" viewBox="0 0 22 19" version="1.1" xmlns="http://www.w3.org/2000/svg" xmlns:xlink="http://www.w3.org/1999/xlink">
    <title>btn_show-members</title>
    <g id="Page-1" stroke="none" stroke-width="1" fill="none" fill-rule="evenodd">
        <g id="Chat-view----Conversation-details" transform="translate(-372.000000, -469.000000)">
            <g id="Group" transform="translate(373.000000, 468.000000)">
                <line x1="12.7272727" y1="9.27272727" x2="16.3636364" y2="9.27272727" id="Path" stroke="#3F4B5E" stroke-width="2" stroke-linecap="square"></line>
                <line x1="12.7272727" y1="12.9090909" x2="16.3636364" y2="12.9090909" id="Path" stroke="#3F4B5E" stroke-width="2" stroke-linecap="square"></line>
                <path d="M2.72727273,14.7272727 C2.72727273,13.2209091 3.94818182,12 5.45454545,12 L7.27272727,12 C8.77909091,12 10,13.2209091 10,14.7272727 L2.72727273,14.7272727 Z" id="Path" fill="#3F4B5E" fill-rule="nonzero"></path>
                <path d="M16.3636364,2 C16.3636364,3.00454545 15.55,3.81818182 14.5454545,3.81818182 C13.5409091,3.81818182 12.7272727,3.00454545 12.7272727,2 L7.27272727,2 C7.27272727,3.00454545 6.45909091,3.81818182 5.45454545,3.81818182 C4.45,3.81818182 3.63636364,3.00454545 3.63636364,2 L0,2 L0,18.3636364 L20,18.3636364 L20,2 L16.3636364,2 Z" id="Path" stroke="#3F4B5E" stroke-width="2" stroke-linecap="square"></path>
                <circle id="Oval" fill="#3F4B5E" fill-rule="nonzero" cx="6.36363636" cy="9.27272727" r="1.81818182"></circle>
            </g>
        </g>
    </g>
</svg>