<?xml version="1.0" encoding="UTF-8"?>
<svg width="17px" height="17px" viewBox="0 0 17 17" version="1.1" xmlns="http://www.w3.org/2000/svg" xmlns:xlink="http://www.w3.org/1999/xlink">
    <title>change-photo</title>
    <defs>
        <linearGradient x1="99.9327064%" y1="99.9551309%" x2="0.447484675%" y2="0.447585088%" id="linearGradient-1">
            <stop stop-color="#E973C4" offset="0%"></stop>
            <stop stop-color="#BA53E0" offset="100%"></stop>
        </linearGradient>
    </defs>
    <g id="Symbols" stroke="none" stroke-width="1" fill="none" fill-rule="evenodd">
        <g id="change-photo" transform="translate(-9.000000, -9.000000)" fill="url(#linearGradient-1)" fill-rule="nonzero">
            <path d="M21.43125,9.31875 C21.00625,8.89375 20.36875,8.89375 19.94375,9.31875 L9.31875,19.94375 C9.10625,20.15625 9,20.36875 9,20.6875 L9,24.9375 C9,25.575 9.425,26 10.0625,26 L14.3125,26 C14.63125,26 14.84375,25.89375 15.05625,25.68125 L25.68125,15.05625 C26.10625,14.63125 26.10625,13.99375 25.68125,13.56875 L21.43125,9.31875 Z M13.8875,23.875 L11.125,23.875 L11.125,21.1125 L17.5,14.7375 L20.2625,17.5 L13.8875,23.875 Z M21.75,16.0125 L18.9875,13.25 L20.6875,11.55 L23.45,14.3125 L21.75,16.0125 Z" id="edit-photo"></path>
        </g>
    </g>
</svg>