<?xml version="1.0" encoding="UTF-8"?>
<svg width="24px" height="23px" viewBox="0 0 24 23" version="1.1" xmlns="http://www.w3.org/2000/svg" xmlns:xlink="http://www.w3.org/1999/xlink">
    <title>Icon - Chat</title>
    <defs>
        <linearGradient x1="99.9327064%" y1="91.2852322%" x2="0.447484675%" y2="9.04759098%" id="linearGradient-1">
            <stop stop-color="#E973C4" offset="0%"></stop>
            <stop stop-color="#BA53E0" offset="100%"></stop>
        </linearGradient>
        <linearGradient x1="99.9327064%" y1="67.9838471%" x2="0.447484675%" y2="32.1611306%" id="linearGradient-2">
            <stop stop-color="#E973C4" offset="0%"></stop>
            <stop stop-color="#BA53E0" offset="100%"></stop>
        </linearGradient>
    </defs>
    <g id="Page-1" stroke="none" stroke-width="1" fill="none" fill-rule="evenodd">
        <g id="Join-a-party" transform="translate(-363.000000, -404.000000)" stroke-width="2">
            <g id="Card" transform="translate(0.000000, 325.000000)">
                <g id="Group" transform="translate(361.000000, 79.000000)">
                    <path d="M24,1 L4,1 C3.44771525,1 3,1.44771525 3,2 L3,15 C3,15.5522847 3.44771525,16 4,16 L10,16 L10,16 L14,21 L18,16 L24,16 C24.5522847,16 25,15.5522847 25,15 L25,2 C25,1.44771525 24.5522847,1 24,1 Z" id="Path" stroke="url(#linearGradient-1)" stroke-linecap="square"></path>
                    <path d="M9,6 L15,6 M9,11 L19,11" id="Combined-Shape" stroke="url(#linearGradient-2)" stroke-linecap="round"></path>
                </g>
            </g>
        </g>
    </g>
</svg>