<?xml version="1.0" encoding="UTF-8"?>
<svg width="51px" height="51px" viewBox="0 0 51 51" version="1.1" xmlns="http://www.w3.org/2000/svg" xmlns:xlink="http://www.w3.org/1999/xlink">
    <title>delete-photo</title>
    <defs>
        <rect id="path-1" x="0" y="0" width="35" height="35" rx="8"></rect>
        <filter x="-34.3%" y="-34.3%" width="168.6%" height="168.6%" filterUnits="objectBoundingBox" id="filter-2">
            <feOffset dx="0" dy="0" in="SourceAlpha" result="shadowOffsetOuter1"></feOffset>
            <feGaussianBlur stdDeviation="4" in="shadowOffsetOuter1" result="shadowBlurOuter1"></feGaussianBlur>
            <feComposite in="shadowBlurOuter1" in2="SourceAlpha" operator="out" result="shadowBlurOuter1"></feComposite>
            <feColorMatrix values="0 0 0 0 0.125490196   0 0 0 0 0.188235294   0 0 0 0 0.250980392  0 0 0 0.16 0" type="matrix" in="shadowBlurOuter1"></feColorMatrix>
        </filter>
        <linearGradient x1="99.9327064%" y1="99.9551309%" x2="0.447484675%" y2="0.447585088%" id="linearGradient-3">
            <stop stop-color="#E973C4" offset="0%"></stop>
            <stop stop-color="#BA53E0" offset="100%"></stop>
        </linearGradient>
    </defs>
    <g id="Page-1" stroke="none" stroke-width="1" fill="none" fill-rule="evenodd">
        <g id="Edit-photo-album" transform="translate(-98.000000, -133.000000)">
            <g id="Galleri" transform="translate(20.000000, 117.000000)">
                <g id="delete-photo" transform="translate(86.000000, 24.000000)">
                    <g id="Border">
                        <use fill="black" fill-opacity="1" filter="url(#filter-2)" xlink:href="#path-1"></use>
                        <rect stroke-opacity="0.3" stroke="#AABBC2" stroke-width="1" stroke-linejoin="square" fill="#FFFFFF" fill-rule="evenodd" x="0.5" y="0.5" width="34" height="34" rx="8"></rect>
                    </g>
                    <path d="M21.546875,9.078125 C21.109375,8.640625 20.453125,8.640625 20.015625,9.078125 L9.078125,20.015625 C8.859375,20.234375 8.75,20.453125 8.75,20.78125 L8.75,25.15625 C8.75,25.8125 9.1875,26.25 9.84375,26.25 L14.21875,26.25 C14.546875,26.25 14.765625,26.140625 14.984375,25.921875 L25.921875,14.984375 C26.359375,14.546875 26.359375,13.890625 25.921875,13.453125 L21.546875,9.078125 Z M13.78125,24.0625 L10.9375,24.0625 L10.9375,21.21875 L17.5,14.65625 L20.34375,17.5 L13.78125,24.0625 Z M21.875,15.96875 L19.03125,13.125 L20.78125,11.375 L23.625,14.21875 L21.875,15.96875 Z" id="Shape" fill="url(#linearGradient-3)" fill-rule="nonzero"></path>
                </g>
            </g>
        </g>
    </g>
</svg>