<?xml version="1.0" encoding="UTF-8"?>
<svg width="28px" height="23px" viewBox="0 0 28 23" version="1.1" xmlns="http://www.w3.org/2000/svg" xmlns:xlink="http://www.w3.org/1999/xlink">
    <title>get-directions</title>
    <defs>
        <linearGradient x1="99.9327064%" y1="84.6844748%" x2="0.447484675%" y2="15.5951359%" id="linearGradient-1">
            <stop stop-color="#E973C4" offset="0%"></stop>
            <stop stop-color="#BA53E0" offset="100%"></stop>
        </linearGradient>
        <linearGradient x1="99.9327064%" y1="99.9551309%" x2="0.447484675%" y2="0.447585088%" id="linearGradient-2">
            <stop stop-color="#E973C4" offset="0%"></stop>
            <stop stop-color="#BA53E0" offset="100%"></stop>
        </linearGradient>
    </defs>
    <g id="get-directions" stroke="none" stroke-width="1" fill="none" fill-rule="evenodd">
        <path d="M26,1.00119493 L26,16.8934525 C26,17.3477187 25.6938115,17.7449121 25.2545033,17.8605244 L19.2332626,19.4451282 C18.6991635,19.5856865 18.1522456,19.2666587 18.0116873,18.7325596 C18.0096374,18.7247702 18.0076816,18.7169562 18.0058205,18.7091195 L17.9829671,18.6128906 C17.8575467,18.0847827 18.1763192,17.5530494 18.7012159,17.4148046 L23.2546899,16.2155319 C23.6939063,16.0998531 24,15.7027036 24,15.2485091 L24,2.27803312 L24,2.27803312 L17.2637431,4.16802065 C17.0660681,4.22348222 16.8561126,4.21675596 16.6623928,4.14875546 L11.2493263,2.24863277 C11.0607746,2.1824464 10.8567177,2.17426829 10.6634741,2.22515323 L4,3.97978079 L4,3.97978079 L4,17.7219531 L10.6515222,15.8495896 L11.1364778,17.8921114 L3.25444303,19.9658929 C2.7203352,20.1064179 2.17343724,19.787356 2.03291223,19.2532482 C2.01106176,19.1701988 2,19.0846808 2,18.9988052 L2,3.10661662 C2,2.65235037 2.30618854,2.255157 2.74549667,2.13954472 L10.7435635,0.0347015729 C10.9367333,-0.0161347314 11.1407011,-0.00795638469 11.3291806,0.0581826358 L16.7498168,1.96032843 C16.9382796,2.02646158 17.1422283,2.03464448 17.3353836,1.98382274 L24.745547,0.0341097934 C25.2796534,-0.106420725 25.8265546,0.212635545 25.9670851,0.746741918 C25.9889373,0.829794367 26,0.915315782 26,1.00119493 Z" id="Path" fill="url(#linearGradient-1)" fill-rule="nonzero"></path>
        <path d="M22,12.0909091 L7,8 L11.0909091,23 L15.1809462,16.1809462 L22,12.0909091 Z M9.85991213,10.8599121 L16.9348907,12.7894517 L13.7191228,14.7191228 L11.7894517,17.9348907 L9.85991213,10.8599121 Z" id="Path" fill="url(#linearGradient-2)" fill-rule="nonzero"></path>
    </g>
</svg>