<?xml version="1.0" encoding="UTF-8"?>
<svg width="32px" height="32px" viewBox="0 0 32 32" version="1.1" xmlns="http://www.w3.org/2000/svg" xmlns:xlink="http://www.w3.org/1999/xlink">
    <title>icon-ext-link</title>
    <g id="icon-ext-link" stroke="none" stroke-width="1" fill="none" fill-rule="evenodd">
        <g id="url" fill-rule="nonzero">
            <path d="M15.7038704,26.3646477 L12.1502751,29.918243 C9.37460888,32.6939092 4.85742432,32.6939092 2.08174969,29.918243 C-0.693916563,27.1425767 -0.693916563,22.6253922 2.08174969,19.8497259 L5.63534493,16.2961307 C8.41101119,13.5204644 12.9281957,13.5204644 15.703862,16.2961307 C18.4795283,19.0717969 18.4795366,23.5889815 15.7038704,26.3646477 Z M3.85854731,21.6265152 C2.062661,23.4224015 2.062661,26.345559 3.85854731,28.1414454 C5.65443362,29.9373317 8.5775912,29.9373317 10.3734775,28.1414454 L13.9270728,24.5878501 C15.7229591,22.7919638 15.7229591,19.8688062 13.9270728,18.0729283 C12.1311864,16.2770504 9.20802887,16.277042 7.41215093,18.0729283 L3.85854731,21.6265152 Z" id="Shape" fill="#B3B3B3"></path>
            <path d="M29.9182514,12.1502668 L26.3646561,15.703862 C23.5889899,18.4795283 19.0717969,18.4795283 16.2961307,15.703862 C13.5204644,12.9281957 13.5204644,8.41101119 16.2961307,5.63534493 L19.8497259,2.08174969 C22.6253922,-0.693916563 27.1425851,-0.693916563 29.918243,2.08174969 C32.6939176,4.85740757 32.6939176,9.37459213 29.9182514,12.1502668 Z M18.0729283,7.41213418 C16.277042,9.20802049 16.277042,12.1311781 18.0729283,13.927056 C19.8688146,15.7229339 22.7919722,15.7229423 24.5878501,13.927056 L28.1414454,10.3734608 C29.9373317,8.57757445 29.9373317,5.65441687 28.1414454,3.85853056 C26.345559,2.06264425 23.4224015,2.06264425 21.6265152,3.85853056 L18.0729283,7.41213418 Z" id="Shape" fill="#B3B3B3"></path>
            <path d="M22.8110609,10.9657294 L10.9657378,22.8110525 C10.4752699,23.3015204 9.67940809,23.3015204 9.18894018,22.8110525 C8.69847227,22.3205846 8.69847227,21.5247228 9.18894018,21.0342549 L21.0342632,9.1889318 C21.5247312,8.69846389 22.320593,8.69846389 22.8110609,9.1889318 C23.3015288,9.67939971 23.3015288,10.4752615 22.8110609,10.9657294 Z" id="Path" fill="#D8D8D8"></path>
            <path d="M16.5089038,17.2678865 L14.689121,19.0876693 C15.0033264,19.6515939 15.1938699,20.26631 15.2531545,20.8927021 L17.3248594,18.8209972 C17.1212328,18.2782887 16.8493592,17.7569808 16.5089038,17.2678865 Z" id="Path" fill="#999999"></path>
            <path d="M18.8209972,17.324851 L20.8927021,15.2531461 C20.26631,15.1938615 19.6515939,15.003318 19.0876693,14.6891127 L17.2678865,16.5088954 C17.7569891,16.8493509 18.2782971,17.1212244 18.8209972,17.324851 Z" id="Path" fill="#999999"></path>
        </g>
    </g>
</svg>