<?xml version="1.0" encoding="UTF-8"?>
<svg width="19px" height="14px" viewBox="0 0 19 14" version="1.1" xmlns="http://www.w3.org/2000/svg" xmlns:xlink="http://www.w3.org/1999/xlink">
    <title>icon_back</title>
    <defs>
        <linearGradient x1="99.9327064%" y1="99.9551309%" x2="0.447484675%" y2="0.447585088%" id="linearGradient-1">
            <stop stop-color="#E973C4" offset="0%"></stop>
            <stop stop-color="#BA53E0" offset="100%"></stop>
        </linearGradient>
    </defs>
    <g id="Page-1" stroke="none" stroke-width="1" fill="none" fill-rule="evenodd">
        <g id="Chat-view---Text-active" transform="translate(-20.000000, -63.000000)" fill="url(#linearGradient-1)">
            <g id="Combined-Shape" transform="translate(20.000000, 60.000000)">
                <path d="M16.3994949,2.89949494 C16.6756373,2.89949494 16.8994949,3.12335256 16.8994949,3.39949494 L16.8994949,12.1813701 C16.8994949,12.4575124 16.6756373,12.6813701 16.3994949,12.6813701 L14.9540262,12.6813701 C14.6778838,12.6813701 14.4540262,12.4575124 14.4540262,12.1813701 L14.4534949,7.07349494 L4.7290193,16.7991781 C4.53375716,16.9944403 4.21717467,16.9944403 4.02191252,16.7991781 L2.99981174,15.7770774 C2.8045496,15.5818152 2.8045496,15.2652327 2.99981174,15.0699706 L12.7244949,5.34449494 L7.61761981,5.34496372 C7.34147743,5.34496372 7.11761981,5.12110609 7.11761981,4.84496372 L7.11761981,3.39949494 C7.11761981,3.12335256 7.34147743,2.89949494 7.61761981,2.89949494 L16.3994949,2.89949494 Z" transform="translate(9.899495, 9.899495) rotate(-135.000000) translate(-9.899495, -9.899495) "></path>
            </g>
        </g>
    </g>
</svg>