<?xml version="1.0" encoding="UTF-8"?>
<svg width="32px" height="32px" viewBox="0 0 32 32" version="1.1" xmlns="http://www.w3.org/2000/svg" xmlns:xlink="http://www.w3.org/1999/xlink">
    <title>icon-share</title>
    <g id="icon-share" stroke="none" stroke-width="1" fill="none" fill-rule="evenodd">
        <path d="M9.3716347,1.58749054 L9.35724747,1.59365346 C3.66379293,4.13869154 -1.77635684e-14,9.77742109 -1.77635684e-14,15.9958323 C-1.77635684e-14,22.2142435 3.66379293,27.852973 9.35724747,30.3980111 C9.5056541,30.4650216 9.66854015,30.5 9.83332337,30.5 C10.3829413,30.5 10.8583876,30.1169957 10.9739211,29.5801822 C11.08955,29.0429254 10.8130435,28.4984822 10.3111573,28.273573 C5.45613841,26.1032248 2.33284778,21.2962599 2.33284778,15.9958323 C2.33284778,10.6954046 5.45613841,5.88843982 10.3107406,3.71827805 C10.8918956,3.43683278 11.1378335,2.76178657 10.8792972,2.18739968 C10.6211888,1.61396342 9.95382469,1.34881721 9.3716347,1.58749054 Z" id="Path" fill="#B3B3B3" fill-rule="nonzero"></path>
        <path d="M30.3716347,1.58749054 L30.3572475,1.59365346 C24.6637929,4.13869154 21,9.77742109 21,15.9958323 C21,22.2142435 24.6637929,27.852973 30.3572475,30.3980111 C30.5056541,30.4650216 30.6685402,30.5 30.8333234,30.5 C31.3829413,30.5 31.8583876,30.1169957 31.9739211,29.5801822 C32.08955,29.0429254 31.8130435,28.4984822 31.3111573,28.273573 C26.4561384,26.1032248 23.3328478,21.2962599 23.3328478,15.9958323 C23.3328478,10.6954046 26.4561384,5.88843982 31.3107406,3.71827805 C31.8918956,3.43683278 32.1378335,2.76178657 31.8792972,2.18739968 C31.6211888,1.61396342 30.9538247,1.34881721 30.3716347,1.58749054 Z" id="Path" fill="#B3B3B3" fill-rule="nonzero" transform="translate(26.500027, 15.999947) rotate(-180.000000) translate(-26.500027, -15.999947) "></path>
        <circle id="Oval" fill="#AB58BA" fill-rule="nonzero" cx="16" cy="16" r="7"></circle>
    </g>
</svg>