<?xml version="1.0" encoding="UTF-8"?>
<svg width="20px" height="20px" viewBox="0 0 20 20" version="1.1" xmlns="http://www.w3.org/2000/svg" xmlns:xlink="http://www.w3.org/1999/xlink">
    <title>icon_settings</title>
    <defs>
        <linearGradient x1="99.9327064%" y1="99.9551309%" x2="0.447484675%" y2="0.447585088%" id="linearGradient-1">
            <stop stop-color="#E973C4" offset="0%"></stop>
            <stop stop-color="#BA53E0" offset="100%"></stop>
        </linearGradient>
    </defs>
    <g id="Page-1" stroke="none" stroke-width="1" fill="none" fill-rule="evenodd">
        <g id="Chat-view---Text-active" transform="translate(-374.000000, -60.000000)" fill="url(#linearGradient-1)" fill-rule="nonzero">
            <g id="Shape" transform="translate(374.000000, 60.000000)">
                <path d="M16.625,6.5 L18,3.875 L16.25,2.125 L13.625,3.5 C13.25,3.25 12.75,3.125 12.25,3 L11.25,0 L8.75,0 L7.75,2.875 C7.375,3 6.875,3.125 6.5,3.375 L3.875,2 L2,3.875 L3.375,6.5 C3.125,6.875 3,7.375 2.875,7.75 L0,8.75 L0,11.25 L2.875,12.25 C3,12.75 3.25,13.125 3.375,13.625 L2,16.25 L3.75,18 L6.375,16.625 C6.75,16.875 7.25,17 7.75,17.125 L8.75,20 L11.25,20 L12.25,17.125 C12.75,17 13.125,16.75 13.625,16.625 L16.25,18 L18,16.25 L16.625,13.625 C16.875,13.25 17,12.75 17.125,12.25 L20,11.25 L20,8.75 L17.125,7.75 C17,7.375 16.875,6.875 16.625,6.5 Z M10,15 C7.16666667,15 5,12.8333333 5,10 C5,7.16666667 7.16666667,5 10,5 C12.8333333,5 15,7.16666667 15,10 C15,12.8333333 12.8333333,15 10,15 Z"></path>
            </g>
        </g>
    </g>
</svg>