<?xml version="1.0" encoding="UTF-8"?>
<svg width="28px" height="23px" viewBox="0 0 28 23" version="1.1" xmlns="http://www.w3.org/2000/svg" xmlns:xlink="http://www.w3.org/1999/xlink">
    <title>start-chat</title>
    <defs>
        <linearGradient x1="99.9327064%" y1="95.878931%" x2="0.447484675%" y2="4.4909245%" id="linearGradient-1">
            <stop stop-color="#E973C4" offset="0%"></stop>
            <stop stop-color="#BA53E0" offset="100%"></stop>
        </linearGradient>
        <linearGradient x1="99.9327064%" y1="51.18237%" x2="0.447484675%" y2="48.8271618%" id="linearGradient-2">
            <stop stop-color="#E973C4" offset="0%"></stop>
            <stop stop-color="#BA53E0" offset="100%"></stop>
        </linearGradient>
        <linearGradient x1="99.9327064%" y1="53.1221957%" x2="0.447484675%" y2="46.9029741%" id="linearGradient-3">
            <stop stop-color="#E973C4" offset="0%"></stop>
            <stop stop-color="#BA53E0" offset="100%"></stop>
        </linearGradient>
    </defs>
    <g id="start-chat" stroke="none" stroke-width="1" fill="none" fill-rule="evenodd">
        <path d="M24,0 L4,0 C2.8954305,0 2,0.875919446 2,2 L2,16 C2.07634914,17.0531396 2.9456382,18 4,18 L10,18 L14,23 L18,18 L24,18 C25.1045695,18 26,17.1240806 26,16 L26,2 C26,0.875919446 25.1045695,0 24,0 Z M5.00176639,2.00176951 L23.0017664,2.03356461 C23.5533606,2.03453895 24,2.481968 24,3.03356305 L24,15 C24,15.5522847 23.5522847,16 23,16 L17,16 L17,16 L14,20 L11,16 L5,16 C4.44771525,16 4,15.5522847 4,15 L4,3.00176795 C4,2.4494832 4.44771525,2.00176795 5,2.00176795 C5.0005888,2.00176795 5.0011776,2.00176847 5.00176639,2.00176951 Z" id="Path" fill="url(#linearGradient-1)" fill-rule="nonzero"></path>
        <path d="M18.9166667,10 C19.5149751,10 20,10.4477153 20,11 C20,11.5128358 19.5817898,11.9355072 19.0430062,11.9932723 L18.9166667,12 L8.08333333,12 C7.48502485,12 7,11.5522847 7,11 C7,10.4871642 7.41821021,10.0644928 7.95699378,10.0067277 L8.08333333,10 L18.9166667,10 Z" id="Path" fill="url(#linearGradient-2)" fill-rule="nonzero"></path>
        <path d="M14,6 C14.5522847,6 15,6.44771525 15,7 C15,7.51283584 14.6139598,7.93550716 14.1166211,7.99327227 L14,8 L8,8 C7.44771525,8 7,7.55228475 7,7 C7,6.48716416 7.38604019,6.06449284 7.88337887,6.00672773 L8,6 L14,6 Z" id="Path" fill="url(#linearGradient-3)" fill-rule="nonzero"></path>
    </g>
</svg>