<?xml version="1.0" encoding="UTF-8"?>
<svg width="20px" height="20px" viewBox="0 0 20 20" version="1.1" xmlns="http://www.w3.org/2000/svg" xmlns:xlink="http://www.w3.org/1999/xlink">
    <title>btn_edit-pen</title>
    <g id="Page-1" stroke="none" stroke-width="1" fill="none" fill-rule="evenodd">
        <g id="My-profile-settings" transform="translate(-373.000000, -509.000000)" fill="#3F4B5E" fill-rule="nonzero">
            <g id="Combined-Shape" transform="translate(373.000000, 509.000000)">
                <path d="M18.3333333,0 C19.2538079,0 20,0.746192084 20,1.66666667 L20,1.66666667 L20,14.1666667 C20,15.0871412 19.2538079,15.8333333 18.3333333,15.8333333 L18.3333333,15.8333333 L13.3333333,15.8333333 L10,20 L6.66666667,15.8333333 L1.66666667,15.8333333 C0.788031837,15.8333333 0.0636242847,15.0290499 0,14.1666667 L0,14.1666667 L0,1.66666667 C0,0.746192084 0.746192084,0 1.66666667,0 L1.66666667,0 Z M18,2 L2,2 L2,13.75 L7.5,13.75 L10,17 L12.5,13.75 L18,13.75 L18,2 Z M13.1666667,9 C13.626904,9 14,9.44771525 14,10 C14,10.5128358 13.6782998,10.9355072 13.2638509,10.9932723 L13.1666667,11 L4.83333333,11 C4.37309604,11 4,10.5522847 4,10 C4,9.48716416 4.32170016,9.06449284 4.73614906,9.00672773 L4.83333333,9 L13.1666667,9 Z M10.125,5 C10.6082492,5 11,5.44771525 11,6 C11,6.51283584 10.6622148,6.93550716 10.2270435,6.99327227 L10.125,7 L4.875,7 C4.39175084,7 4,6.55228475 4,6 C4,5.48716416 4.33778517,5.06449284 4.77295652,5.00672773 L4.875,5 L10.125,5 Z"></path>
            </g>
        </g>
    </g>
</svg>