<?xml version="1.0" encoding="UTF-8"?>
<svg width="28px" height="23px" viewBox="0 0 28 23" version="1.1" xmlns="http://www.w3.org/2000/svg" xmlns:xlink="http://www.w3.org/1999/xlink">
    <title>partyon-inactive</title>
    <g id="partyon-inactive" stroke="none" stroke-width="1" fill="none" fill-rule="evenodd">
        <path d="M12.3873646,1.77635684e-15 L13.8089326,0.866845002 C15.2931021,1.77186316 16.2681026,3.11512282 16.8063485,4.75174813 C17.2950167,6.23762427 17.38196,7.78079183 17.2428256,9.17148168 L17.2045078,9.49791419 L17.1821596,9.64317066 L17.0124779,10.6163928 L15.0414801,10.281257 L15.2172474,9.27021972 L15.2525163,8.97728742 C15.3668498,7.83448928 15.2943915,6.54841677 14.9041566,5.36184321 C14.7040817,4.75348274 14.4304702,4.21016915 14.0754337,3.73879386 L13.942,3.5706026 L13.9069933,3.68489923 C13.4653764,5.00145814 12.6643118,6.18118676 11.5897429,7.07597926 L11.3712078,7.25109473 C8.82725478,9.43046282 6.97684032,12.0663746 7.00023365,14.4790304 C6.98469835,16.5137023 7.90801989,18.4176073 9.46497767,19.699816 L9.695,19.8798689 L9.73638689,19.7633197 C10.0643258,18.8994976 10.6005664,18.1116755 11.3175151,17.4612593 L11.5379934,17.270318 C12.1448699,16.8161913 12.5554984,16.1633509 12.6968336,15.4387222 L12.728648,15.2394117 L12.9050948,13.8230707 L14.1851535,14.4851914 C16.2821918,15.5699012 17.7881715,17.4522073 18.3827121,19.6683457 L18.42,19.8206164 L18.5485882,19.727456 C19.9394932,18.6590038 20.8332135,17.0675923 20.9795163,15.3237873 L20.9953052,15.0736757 C21.0684819,12.6833755 20.2841329,10.3461295 18.7824197,8.46054048 L18.5630243,8.19428616 L17.9190633,7.43875847 L19.44918,6.16688061 L20.093141,6.9224083 C22.0539748,9.22295798 23.0859464,12.1427501 22.9939733,15.1448237 C22.8664297,18.1535361 21.0705868,20.8458288 18.3251205,22.1844923 L18.0649728,22.3059946 L16.6527168,22.9370761 L16.652,21.421423 L16.6359046,21.183408 C16.4895488,19.6035695 15.731281,18.1528327 14.5414378,17.1097565 L14.307897,16.9144665 C13.9668012,17.6646097 13.442697,18.3225224 12.7843731,18.8142088 C12.0161356,19.4502168 11.522813,20.3391915 11.3948565,21.3047965 L11.371855,21.5289084 L11.2645594,23 L9.92808459,22.3416708 C6.88554908,20.8429593 4.97488686,17.7912749 5.00030849,14.4810996 C4.96961033,11.334902 7.10823975,8.28842851 10.1001328,5.7270282 C11.3206242,4.78504197 12.0966543,3.40927882 12.2625098,1.91222743 L12.2854107,1.64684645 L12.3873646,1.77635684e-15 Z" id="Path" fill="#828FA6" fill-rule="nonzero"></path>
    </g>
</svg>