<?xml version="1.0" encoding="UTF-8"?>
<svg width="20px" height="20px" viewBox="0 0 20 20" version="1.1" xmlns="http://www.w3.org/2000/svg" xmlns:xlink="http://www.w3.org/1999/xlink">
    <title>0EBB45CB-2515-4F35-AF0B-A7ACB2BDCB20</title>
    <g id="Page-1" stroke="none" stroke-width="1" fill="none" fill-rule="evenodd">
        <g id="Place---Scrolled-view" transform="translate(-197.000000, -784.000000)" fill="#AB58BA" fill-rule="nonzero">
            <g id="Card-(scrolled)" transform="translate(0.000000, -19.000000)">
                <g id="o-warning" transform="translate(197.000000, 803.000000)">
                    <circle id="Oval" cx="10" cy="14.8" r="1.2"></circle>
                    <path d="M13.7284,0 L6.2716,0 C6.00638351,0 5.7520296,0.10535684 5.56449322,0.292893219 L0.292893219,5.56449322 C0.10535684,5.7520296 0,6.00638351 0,6.2716 L0,13.7284 C0,13.9936165 0.10535684,14.2479704 0.292893219,14.4355068 L5.56449322,19.7071068 C5.7520296,19.8946432 6.00638351,20 6.2716,20 L13.7284,20 C13.9936165,20 14.2479704,19.8946432 14.4355068,19.7071068 L19.7071068,14.4355068 C19.8946432,14.2479704 20,13.9936165 20,13.7284 L20,6.2716 C20,6.00638351 19.8946432,5.7520296 19.7071068,5.56449322 L14.4355068,0.292893219 C14.2479704,0.10535684 13.9936165,0 13.7284,0 Z M13.314,2 L18,6.686 L18,13.313 L13.313,18 L6.686,18 L2,13.314 L2,6.685 L6.685,2 L13.314,2 Z" id="Path"></path>
                    <path d="M10,3.6 C10.5128358,3.6 10.9355072,3.98604019 10.9932723,4.48337887 L11,4.6 L11,11.2 C11,11.7522847 10.5522847,12.2 10,12.2 C9.48716416,12.2 9.06449284,11.8139598 9.00672773,11.3166211 L9,11.2 L9,4.6 C9,4.04771525 9.44771525,3.6 10,3.6 Z" id="Path"></path>
                </g>
            </g>
        </g>
    </g>
</svg>