<?xml version="1.0" encoding="UTF-8"?>
<svg width="15px" height="15px" viewBox="0 0 15 15" version="1.1" xmlns="http://www.w3.org/2000/svg" xmlns:xlink="http://www.w3.org/1999/xlink">
    <title>send-message</title>
    <defs>
        <linearGradient x1="99.9327064%" y1="99.9508486%" x2="0.447484675%" y2="0.451832836%" id="linearGradient-1">
            <stop stop-color="#E973C4" offset="0%"></stop>
            <stop stop-color="#BA53E0" offset="100%"></stop>
        </linearGradient>
    </defs>
    <g id="Page-1" stroke="none" stroke-width="1" fill="none" fill-rule="evenodd">
        <g id="Chat-view---Text-active" transform="translate(-366.000000, -535.000000)" fill="url(#linearGradient-1)" fill-rule="nonzero">
            <g id="Input-bar" transform="translate(0.000000, 507.000000)">
                <g id="send-message" transform="translate(366.000000, 28.000000)">
                    <path d="M14.7251365,0.274346724 C14.469199,0.0193467239 14.0876365,-0.0678407761 13.747324,0.0549717239 L0.622324043,4.74247172 C0.268886543,4.86809672 0.024199043,5.19340922 0.00169904304,5.56747172 C-0.020800957,5.94247172 0.181699043,6.29403422 0.518261543,6.46278422 L4.81763654,8.61153422 L10.312324,4.68715922 L6.38701154,10.1827842 L8.53576154,14.4821592 C8.69607404,14.7999717 9.02138654,14.9996592 9.37482404,14.9996592 C9.39451154,14.9996592 9.41326154,14.9987217 9.43201154,14.9977842 C9.80701154,14.9752842 10.132324,14.7315342 10.2588865,14.3771592 L14.9463865,1.25215922 C15.067324,0.911846724 14.981074,0.530284224 14.7251365,0.274346724 Z" id="Path"></path>
                </g>
            </g>
        </g>
    </g>
</svg>