<?xml version="1.0" encoding="UTF-8"?>
<svg width="27px" height="24px" viewBox="0 0 27 24" version="1.1" xmlns="http://www.w3.org/2000/svg" xmlns:xlink="http://www.w3.org/1999/xlink">
    <title>share_icon_new</title>
    <g id="Page-1" stroke="none" stroke-width="1" fill="none" fill-rule="evenodd">
        <g id="Refined-party---Checked-in" transform="translate(-194.000000, -317.000000)" fill-rule="nonzero">
            <g id="Card" transform="translate(0.000000, 80.000000)">
                <g id="share_icon_new" transform="translate(194.500000, 237.000000)">
                    <path d="M25.9727764,23.2740074 L21.8362376,11.9879786 C21.7588778,11.7555093 21.5309439,11.5972884 21.2730774,11.5970595 L4.72692256,11.5970595 C4.4690561,11.5972884 4.24112222,11.7555093 4.16376236,11.9879786 L0.0272236434,23.2740074 C-0.0291996714,23.443561 0.00315141555,23.6283714 0.114348286,23.7717198 C0.225545156,23.9150682 0.402306487,23.9998331 0.590383843,24 L25.4096162,24 C25.5976935,23.9998331 25.7744548,23.9150682 25.8856517,23.7717198 C25.9968486,23.6283714 26.0291997,23.443561 25.9727764,23.2740074 Z" id="Path" fill="#D9DDE4"></path>
                    <path d="M8.27252718,7.24632434 L11.8181318,7.24632434 L11.8181318,17.2985297 C11.8181318,17.915383 12.3472722,18.4154414 13,18.4154414 C13.6527278,18.4154414 14.1818682,17.915383 14.1818682,17.2985297 L14.1818682,7.24632434 L17.7274728,7.24632434 C17.94973,7.24635355 18.153208,7.12852531 18.2540981,6.94137069 C18.3549883,6.75421608 18.3362258,6.52939102 18.2055385,6.35949644 L13.4780657,0.21648203 C13.3616362,0.0796114074 13.1858272,0 13,0 C12.8141728,0 12.6383638,0.0796114074 12.5219343,0.21648203 L7.79446149,6.35949644 C7.66377424,6.52939102 7.64501175,6.75421608 7.7459019,6.94137069 C7.84679205,7.12852531 8.05026996,7.24635355 8.27252718,7.24632434 Z" id="Path" fill="#3F4B5E"></path>
                </g>
            </g>
        </g>
    </g>
</svg>