<?xml version="1.0" encoding="UTF-8"?>
<svg width="24px" height="23px" viewBox="0 0 24 23" version="1.1" xmlns="http://www.w3.org/2000/svg" xmlns:xlink="http://www.w3.org/1999/xlink">
    <title>start-chat</title>
    <defs>
        <linearGradient x1="99.9327064%" y1="94.3000804%" x2="0.447484675%" y2="6.05704711%" id="linearGradient-1">
            <stop stop-color="#E973C4" offset="0%"></stop>
            <stop stop-color="#BA53E0" offset="100%"></stop>
        </linearGradient>
        <linearGradient x1="99.9327064%" y1="99.9551309%" x2="0.447484675%" y2="0.447585088%" id="linearGradient-2">
            <stop stop-color="#E973C4" offset="0%"></stop>
            <stop stop-color="#BA53E0" offset="100%"></stop>
        </linearGradient>
    </defs>
    <g id="Page-1" stroke="none" stroke-width="1" fill="none" fill-rule="evenodd">
        <g id="Chat-list" transform="translate(-368.000000, -61.000000)" fill-rule="nonzero">
            <g id="Group" transform="translate(366.000000, 61.000000)">
                <path d="M24,0 L4,0 C2.8954305,0 2,0.8954305 2,2 L2,15 L2.00548574,15.1492623 C2.08183488,16.1841222 2.9456382,17 4,17 L9.52,17 L14,22.6007811 L18.479,17 L24,17 C25.1045695,17 26,16.1045695 26,15 L26,2 C26,0.8954305 25.1045695,0 24,0 Z M4,2 L24,2 L24,15 L17.5193752,15 L14,19.399 L10.4806248,15 L4,15 L4,2 Z" id="Path" fill="url(#linearGradient-1)"></path>
                <path d="M14,5 C14.5128358,5 14.9355072,5.38604019 14.9932723,5.88337887 L15,6 L15,8 L17,8 C17.5522847,8 18,8.44771525 18,9 C18,9.51283584 17.6139598,9.93550716 17.1166211,9.99327227 L17,10 L15,10 L15,12 C15,12.5522847 14.5522847,13 14,13 C13.4871642,13 13.0644928,12.6139598 13.0067277,12.1166211 L13,12 L13,10 L11,10 C10.4477153,10 10,9.55228475 10,9 C10,8.48716416 10.3860402,8.06449284 10.8833789,8.00672773 L11,8 L13,8 L13,6 C13,5.44771525 13.4477153,5 14,5 Z" id="Combined-Shape" fill="url(#linearGradient-2)"></path>
            </g>
        </g>
    </g>
</svg>