<?xml version="1.0" encoding="UTF-8"?>
<svg width="48px" height="46px" viewBox="0 0 48 46" version="1.1" xmlns="http://www.w3.org/2000/svg" xmlns:xlink="http://www.w3.org/1999/xlink">
    <title>share-icon</title>
    <g id="Symbols" stroke="none" stroke-width="1" fill="none" fill-rule="evenodd">
        <g id="sharetype-xl" transform="translate(-34.000000, -35.000000)" fill-rule="nonzero">
            <g id="Group" transform="translate(34.000000, 34.000000)">
                <g id="polaroid-shots" transform="translate(0.000000, 1.500000)">
                    <path d="M46.95,41.7391304 L13.35,41.7391304 C12.7700955,41.7391304 12.3,41.2719443 12.3,40.6956522 L12.3,1.04347826 C12.3,0.467186087 12.7700955,0 13.35,0 L46.95,0 C47.529894,0 48,0.467186087 48,1.04347826 L48,40.6956522 C48,41.2719443 47.529894,41.7391304 46.95,41.7391304 Z" id="Path" fill="#C6C6C6"></path>
                    <path d="M34.65,45 L1.05,45 C0.470106,45 0,44.5328139 0,43.9565217 L0,4.30434783 C0,3.72805565 0.470106,3.26086957 1.05,3.26086957 L34.65,3.26086957 C35.229894,3.26086957 35.7,3.72805565 35.7,4.30434783 L35.7,43.9565217 C35.7,44.5328139 35.229894,45 34.65,45 Z" id="Path" fill="#E6E6E6"></path>
                    <rect id="Rectangle" fill="#444444" x="3.15" y="6.39130435" width="29.4" height="29.2173913"></rect>
                </g>
            </g>
        </g>
    </g>
</svg>