<?xml version="1.0" encoding="UTF-8"?>
<svg width="48px" height="46px" viewBox="0 0 48 46" version="1.1" xmlns="http://www.w3.org/2000/svg" xmlns:xlink="http://www.w3.org/1999/xlink">
    <title>share-icon</title>
    <g id="Symbols" stroke="none" stroke-width="1" fill="none" fill-rule="evenodd">
        <g id="sharetype-xl" transform="translate(-34.000000, -35.000000)" fill-rule="nonzero">
            <g id="share-icon" transform="translate(34.000000, 34.000000)">
                <path d="M9.5,4.5 L5.5,4.5 C4.94772,4.5 4.5,5.003685 4.5,5.625 L4.5,9 L10.5,7.875 L10.5,5.625 C10.5,5.003685 10.05229,4.5 9.5,4.5 Z" id="Path" fill="#C6C6C6"></path>
                <path d="M43.826087,7.91601326 L41.7391304,7.91601326 L39.1859687,3 C38.8321148,2.27472823 38.110007,1.5 37.3202087,1.5 L27.3754435,1.5 C26.5856348,1.5 25.8635374,2.27473894 25.5096835,3 L22.9565217,7.91601326 L4.17391304,7.91601326 C1.86869217,7.91601326 0,9.8353844 0,12.2031229 L0,42.2128904 C0,44.5806289 1.86869217,46.5 4.17391304,46.5 L43.826087,46.5 C46.1313078,46.5 48,44.5806289 48,42.2128904 L48,12.2031229 C48,9.8353844 46.1313078,7.91601326 43.826087,7.91601326 Z" id="Path" fill="#E6E6E6"></path>
                <path d="M43.826087,46.5 L4.17391304,46.5 C1.86872348,46.5 0,44.5972113 0,42.25 L0,25.5 L48,25.5 L48,42.25 C48,44.5972113 46.1312765,46.5 43.826087,46.5 Z" id="Path" fill="#666666"></path>
                <path d="M24,39 C17.38281,39 12,33.6167 12,27 C12,20.3833 17.38281,15 24,15 C30.61719,15 36,20.3833 36,27 C36,33.6167 30.61719,39 24,39 Z" id="Path" fill="#C6C6C6"></path>
                <circle id="Oval" fill="#666666" cx="24" cy="27" r="10.5"></circle>
                <circle id="Oval" fill="#444444" cx="24" cy="27" r="6"></circle>
                <path d="M35.4782609,7.74660522 L29.2173913,7.74660522 C28.6410991,7.74660522 28.173913,7.27942957 28.173913,6.70312696 L28.173913,5.6596487 C28.173913,5.08335652 28.6410991,4.61617043 29.2173913,4.61617043 L35.4782609,4.61617043 C36.054553,4.61617043 36.5217391,5.08335652 36.5217391,5.6596487 L36.5217391,6.70312696 C36.5217391,7.27942957 36.054553,7.74660522 35.4782609,7.74660522 Z" id="Path" fill="#FFFFFF"></path>
            </g>
        </g>
    </g>
</svg>